<svg width="200" height="200" viewBox="0 0 200 200" xmlns="http://www.w3.org/2000/svg">
  <!-- 背景 -->
  <rect width="200" height="200" fill="#ffffff" stroke="#e0e0e0" stroke-width="2"/>
  
  <!-- 模拟二维码图案 -->
  <g fill="#000000">
    <!-- 左上角定位点 -->
    <rect x="10" y="10" width="50" height="50" fill="none" stroke="#000" stroke-width="6"/>
    <rect x="20" y="20" width="30" height="30" fill="none" stroke="#000" stroke-width="6"/>
    <rect x="30" y="30" width="10" height="10"/>
    
    <!-- 右上角定位点 -->
    <rect x="140" y="10" width="50" height="50" fill="none" stroke="#000" stroke-width="6"/>
    <rect x="150" y="20" width="30" height="30" fill="none" stroke="#000" stroke-width="6"/>
    <rect x="160" y="160" width="10" height="10"/>
    
    <!-- 左下角定位点 -->
    <rect x="10" y="140" width="50" height="50" fill="none" stroke="#000" stroke-width="6"/>
    <rect x="20" y="150" width="30" height="30" fill="none" stroke="#000" stroke-width="6"/>
    <rect x="30" y="160" width="10" height="10"/>
    
    <!-- 模拟数据点 -->
    <rect x="70" y="20" width="8" height="8"/>
    <rect x="80" y="20" width="8" height="8"/>
    <rect x="100" y="20" width="8" height="8"/>
    <rect x="120" y="20" width="8" height="8"/>
    
    <rect x="20" y="70" width="8" height="8"/>
    <rect x="30" y="80" width="8" height="8"/>
    <rect x="50" y="70" width="8" height="8"/>
    <rect x="70" y="80" width="8" height="8"/>
    
    <rect x="80" y="70" width="8" height="8"/>
    <rect x="90" y="80" width="8" height="8"/>
    <rect x="110" y="70" width="8" height="8"/>
    <rect x="120" y="80" width="8" height="8"/>
    
    <rect x="160" y="70" width="8" height="8"/>
    <rect x="170" y="80" width="8" height="8"/>
    
    <rect x="70" y="100" width="8" height="8"/>
    <rect x="80" y="110" width="8" height="8"/>
    <rect x="100" y="100" width="8" height="8"/>
    <rect x="120" y="110" width="8" height="8"/>
    
    <rect x="70" y="160" width="8" height="8"/>
    <rect x="80" y="170" width="8" height="8"/>
    <rect x="100" y="160" width="8" height="8"/>
    <rect x="120" y="170" width="8" height="8"/>
    
    <rect x="160" y="100" width="8" height="8"/>
    <rect x="170" y="110" width="8" height="8"/>
    <rect x="160" y="120" width="8" height="8"/>
    <rect x="170" y="130" width="8" height="8"/>
  </g>
  
  <!-- 中心文字 -->
  <text x="100" y="105" text-anchor="middle" font-family="Arial, sans-serif" font-size="12" fill="#666">
    小程序
  </text>
  <text x="100" y="120" text-anchor="middle" font-family="Arial, sans-serif" font-size="10" fill="#999">
    开发中
  </text>
</svg>